<?xml version="1.0" encoding="UTF-8"?>
<svg width="24px" height="24px" viewBox="0 0 24 24" version="1.1" xmlns="http://www.w3.org/2000/svg" xmlns:xlink="http://www.w3.org/1999/xlink">
    <title>discover-grayed</title>
    <g id="myHome" stroke="none" stroke-width="1" fill="none" fill-rule="evenodd">
        <g id="M-myHome-Copy-6" transform="translate(-269.000000, -835.000000)">
            <g id="Group-24" transform="translate(0.000000, 824.000000)">
                <g id="Group-23" transform="translate(48.000000, 11.000000)">
                    <g id="Group-20" transform="translate(221.000000, 0.000000)">
                        <rect id="Rectangle" x="0" y="0" width="24" height="24"></rect>
                        <g id="Group-2" transform="translate(0.306611, 1.000000)">
                            <path d="M3.77717021,14.3765761 L3.55972058,16.88294 C3.51198423,17.4331578 3.91932597,17.9178955 4.46954383,17.9656319 C4.49828778,17.9681257 4.5271262,17.9693743 4.55597814,17.9693743 L8.47439504,17.9693743 C8.86944285,17.9693743 9.18969238,18.2896238 9.18969238,18.6846716 C9.18969238,19.002609 8.9798363,19.2823869 8.67460724,19.3713778 L1.27990103,21.5273369 C0.749691677,21.6819218 0.194556272,21.377418 0.039971403,20.8472086 C-0.0247764404,20.6251305 -0.0105294442,20.3874734 0.0802854904,20.174721 L2.67309349,14.1005407 C2.79803564,13.8078383 3.13660342,13.6718418 3.4293058,13.7967839 C3.65837376,13.8945632 3.79869789,14.1284441 3.77717021,14.3765761 Z" id="Combined-Shape" fill="#364958"></path>
                            <path d="M18.5812929,2.46797369 C18.9637402,2.30889222 19.3744618,2.3198884 19.7293419,2.46626677 C20.084222,2.61264515 20.3832606,2.89440572 20.5423421,3.27685305 C20.7059656,3.67021981 20.6945957,4.11460779 20.5110706,4.49909261 L20.5110706,4.49909261 L14.2384735,17.6401728 C14.113968,17.9010116 13.92006,18.1144729 13.6850207,18.2627246 C13.4499814,18.4109762 13.173811,18.4940182 12.8847807,18.4940182 L12.8847807,18.4940182 L4.53953981,18.4940182 C4.12532624,18.4940182 3.75032624,18.3261249 3.47887963,18.0546783 C3.21315737,17.7889561 3.04666702,17.4240019 3.0397632,17.0201704 L3.0397632,17.0201704 L3.89891328,9.40914279 C3.92988702,9.13885455 4.03283102,8.88754994 4.19082983,8.67769606 C4.34882864,8.46784217 4.56188226,8.299439 4.81307525,8.19495364 L4.81307525,8.19495364 Z" id="Rectangle" stroke="#364958"></path>
                            <path d="M5.05380256,8.49127732 L20.1702001,2.90449172 L14.1143787,17.2651603 C17.4884637,10.4233859 18.4709579,6.59842051 17.0618612,5.79026423 C15.6527644,4.98210795 11.6500782,5.88244565 5.05380256,8.49127732 Z" id="Path-3" stroke="#364958" fill="#364958" stroke-linecap="round" stroke-linejoin="round"></path>
                            <path d="M3.7425798,17.6751777 L4.59484619,8.49127732 C4.18603684,12.5695362 4.48591794,15.1086276 5.49448947,16.1085513 C6.503061,17.108475 9.3763574,17.6306838 14.1143787,17.6751777 L3.7425798,17.6751777 Z" id="Path-2" stroke="#364958" fill="#364958" stroke-linejoin="round"></path>
                        </g>
                    </g>
                </g>
            </g>
        </g>
    </g>
</svg>