<?xml version="1.0" encoding="UTF-8"?>
<svg width="24px" height="24px" viewBox="0 0 24 24" version="1.1" xmlns="http://www.w3.org/2000/svg" xmlns:xlink="http://www.w3.org/1999/xlink">
    <title>Feed-Grayed</title>
    <g id="navigation-bar" stroke="none" stroke-width="1" fill="none" fill-rule="evenodd">
        <g id="Group-18-Copy">
            <rect id="Rectangle" x="0" y="0" width="24" height="24"></rect>
            <g id="Group" fill="#364958" fill-rule="nonzero">
                <g id="feed_icon" transform="translate(0.148587, 7.199246)">
                    <path d="M1.32351797,0.000753587785 C1.20471419,0.0169503608 1.09565746,0.0752135414 1.01614955,0.164964114 L0.106675864,1.26391148 C0.0297049682,1.35854671 -0.00797747414,1.47913052 0.00141270587,1.60075359 C0.00677970956,1.72511483 0.0668984777,1.84072785 0.165623232,1.91654306 L3.36983376,4.59864832 L7.35720218,7.92917464 L10.7003601,10.7418062 C11.3549872,11.2525282 12.2731014,11.2525282 12.9277285,10.7418062 L23.4540443,1.89970096 C23.552769,1.82388574 23.6128878,1.70827273 23.6182548,1.58391148 C23.6281586,1.47008822 23.5967729,1.35650183 23.5298338,1.26391148 L22.6203601,0.164964114 C22.5426289,0.0751949566 22.4348566,0.0168182758 22.3172022,0.000753587785 C22.1920138,-0.00587180085 22.0684318,0.0313517036 21.9677285,0.106016746 L21.9677285,0.106016746 C19.0203601,2.56496411 15.4540443,6.68706938 11.8624653,6.68706938 C8.27088639,6.68706938 4.63299165,2.56496411 1.68562323,0.106016746 L1.68562323,0.106016746" id="Path"></path>
                    <path d="M4.70878113,5.60917464 C4.80447,5.55517504 4.89723152,5.49614498 4.98667586,5.43233254 L5.11299165,5.34391148 L5.11299165,5.34391148 C5.45825481,5.03233254 5.8077285,4.73338517 6.13614955,4.40075359 L6.34246534,4.18601675 C4.68351797,2.86812201 3.09614955,1.29759569 1.68562323,0.106016746 L1.68562323,0.106016746 L1.32351797,0.000753587785 C1.20471419,0.0169503608 1.09565746,0.0752135414 1.01614955,0.164964114 L0.106675864,1.26391148 C0.0297049682,1.35854671 -0.00797747414,1.47913052 0.00141270587,1.60075359 C0.00677970956,1.72511483 0.0668984777,1.84072785 0.165623232,1.91654306 L3.36983376,4.59864832 L4.63299165,5.6512799 L4.70878113,5.60917464 Z" id="Path"></path>
                    <path d="M14.611939,8.06812201 C14.1912274,7.55236112 13.8111408,7.00475494 13.4750969,6.43022727 C12.9520724,6.59640938 12.4070303,6.68299158 11.8582548,6.68706938 C11.2306899,6.6793023 10.6088187,6.56688165 10.0182548,6.3544378 L9.90878113,6.48075359 C9.78190904,6.91454678 9.59482368,7.32840227 9.35299165,7.71022727 C9.08285288,8.11895933 8.77100546,8.49853831 8.42246534,8.84285885 L10.6877285,10.7502273 C11.3423556,11.2609492 12.2604698,11.2609492 12.9150969,10.7502273 L15.2308864,8.81338517 C15.0329917,8.56075359 14.8140443,8.32075359 14.611939,8.06812201 Z" id="Path"></path>
                    <path d="M23.5298338,1.26391148 L22.6203601,0.164964114 C22.5426289,0.0751949566 22.4348566,0.0168182758 22.3172022,0.000753587785 C22.1920138,-0.00587180085 22.0684318,0.0313517036 21.9677285,0.106016746 L21.9677285,0.106016746 C20.5950969,1.26391148 19.0877285,2.75022727 17.5087811,4.03022727 C17.5972022,4.15654306 17.6856232,4.28706938 17.7782548,4.41338517 C18.1439974,4.85906131 18.5377783,5.28096944 18.9572022,5.67654306 L23.4708864,1.88706938 C23.5696111,1.81125416 23.6297299,1.69564115 23.6350969,1.5712799 C23.6371608,1.45964654 23.5998993,1.35084298 23.5298338,1.26391148 L23.5298338,1.26391148 Z" id="Path"></path>
                </g>
            </g>
        </g>
    </g>
</svg>